<?xml version="1.0" encoding="UTF-8"?>
<svg width="1200pt" height="1200pt" version="1.1" viewBox="0 0 1200 1200" xmlns="http://www.w3.org/2000/svg">
 <path d="m1019.4 1025.3c-7.0781-42.238-22.801-80.039-46.68-112.56-12.719-17.398-25.922-34.68-38.641-51.48l-0.60156-0.83984c-10.441-13.68-21.238-27.961-31.68-42-22.199-29.879-44.641-60.602-66.359-90.121l-33-45 0.71875-0.83984c2.3984-3.2383 4.6797-6.1211 6.7188-8.8789 3.9609-5.1602 7.4414-9.7188 10.559-14.281 5.0391-7.4414 10.199-14.762 15.359-22.32 12.719-18.238 25.922-37.078 37.078-56.52 30.359-52.68 27.719-111.12 22.078-156.12-11.52-91.68-49.68-177-113.4-253.44-32.16-38.641-66-62.762-103.56-73.68-63.359-18.602-125.64-33.121-190.56-7.3203-11.879 4.6797-24.121 8.7617-36.359 12.719-20.398 6.7188-41.398 13.559-60.238 23.879-88.199 48-146.4 124.2-177.84 233.04-5.8789 20.281-11.398 38.16-16.922 54.719-15.961 47.762-16.68 91.801-2.2812 134.52 19.801 58.922 52.078 109.44 81 151.2 25.32 36.602 59.762 65.16 99.602 82.801 54.121 23.879 114.6 30.359 179.76 19.32 19.32-3.2383 38.52-7.3203 57.48-11.16 8.1602-1.6797 16.199-3.3594 24.121-4.9219l1.0781-0.23828 0.60156 0.83984c5.3984 8.8789 10.801 17.762 16.199 26.52l1.6797 2.6406c13.199 21.48 25.559 41.762 37.922 62.641 45 76.441 99.359 154.2 166.08 237.96 6.2383 7.8008 15.84 16.32 27.961 16.32 2.5195 0 5.2812-0.35938 8.0391-1.1992 42.961-12.961 86.641-30.359 114.84-70.078 7.3203-10.32 11.281-25.559 9.6016-36zm-404.64-289.2c-12.602 3.3594-25.441 6.4805-37.801 9.4805l-17.762 4.3203c-17.641 3.1211-35.52 4.6797-53.16 4.6797-24.121 0-48.121-2.7617-73.441-8.3984-37.559-8.3984-68.52-25.922-94.559-53.281-37.801-39.84-68.281-89.398-93.359-151.68-13.68-33.961-13.078-70.32 1.5586-105.12 5.5195-13.199 9.1211-24.719 11.039-35.398 7.8008-44.039 25.32-88.078 55.32-138.72 16.441-27.719 40.922-48.48 64.559-68.52l2.7617-2.2812c37.559-31.922 80.52-45.961 132.84-60.961 13.922-3.9609 27.84-5.6406 41.641-5.6406 27.359 0 54.121 6.2383 78.602 12 57.719 13.559 103.8 49.32 144.96 112.56 30.961 47.52 52.199 98.281 63.238 151.08 16.199 77.039 2.3984 145.44-42.238 208.92-45.602 64.922-105.72 106.44-183.96 127.08zm181.32 163.08c-6.8398 4.0781-14.039 8.2812-21.359 12.84l-1.3203 0.83984-0.71875-1.4414c-11.039-21.121-22.801-40.922-34.32-60.238-17.16-28.801-33.48-56.039-46.199-86.281l-0.48047-1.1992 71.879-44.281 11.641 15.48c8.3984 11.16 16.68 22.32 24.961 33.48 10.801 14.641 21.48 29.398 32.16 44.16l13.441 18.602c7.5586 10.441 11.281 16.922 10.32 23.16-0.96094 5.8789-6.3594 10.68-14.641 16.559-13.801 9.7188-28.559 18.48-44.16 27.719l-0.83984 0.48047zm158.52 144.48c-0.83984 0.60156-1.9219 1.0781-3.2383 1.8008-0.71875 0.35938-1.3203 0.60156-1.9219 1.0781-24.84 15.48-38.281 23.52-47.641 23.52-8.3984 0-14.281-6.7188-24.961-19.68-3.9609-4.8008-8.3984-10.32-14.16-16.801-10.32-11.52-19.68-23.879-28.441-35.641-5.6406-7.5586-11.16-15.602-16.922-24l-0.83984-1.1992c-2.6406-3.8398-5.3984-7.9219-8.2812-12l-0.83984-1.1992 86.641-60.602 0.83984 1.0781c26.039 33.48 55.441 71.398 69.359 117.36 3.2383 10.801 0 19.68-9.6016 26.52z"/>
 <path d="m665.28 244.2c-37.32-28.078-76.078-42.238-114.96-42.238-29.16 0-58.922 8.0391-88.441 23.762-16.078 8.5195-30.961 19.922-45.48 30.84-8.0391 6.1211-16.441 12.359-24.961 18.238-33.238 22.68-57.719 56.16-74.641 102.12-15 40.68-30.48 82.68-12.48 124.08l0.23828 0.83984c0.23828 37.559 14.52 67.559 45.121 94.441 9 7.9219 18.48 15.48 27.602 22.801l0.35938 0.35938c6.8398 5.5195 13.922 11.281 20.762 17.039 27.359 23.16 58.441 34.441 95.641 34.441 12 0 24.719-1.1992 38.16-3.4805 54.84-9.4805 101.16-37.68 139.32-64.078 93.602-64.68 103.68-180.24 73.441-260.16-14.039-36.84-40.078-69.238-79.68-99zm42.48 203.04c-1.9219 51.719-26.398 92.039-75.121 123.24-37.801 24.238-71.398 38.762-105.6 45.602-25.441 5.0391-48.602 2.8789-71.281-6.8398-35.641-15.238-64.922-40.199-87.121-74.039-6.3594-9.7188-9.1211-21.719-11.879-33.719-1.1992-5.1602-2.3984-10.441-3.8398-15.359-11.52-68.398 10.199-126.96 64.559-173.88 27.359-23.641 55.32-41.039 85.199-52.922 14.16-5.6406 28.199-8.3984 42.719-8.3984 20.641 0 42.238 5.6406 66.602 17.16 16.441 7.8008 31.32 19.801 45.121 31.441 47.762 40.199 52.559 94.801 50.641 147.72z"/>
</svg>
