<?xml version="1.0" encoding="UTF-8"?>
<svg width="1200pt" height="1200pt" version="1.1" viewBox="0 0 1200 1200" xmlns="http://www.w3.org/2000/svg">
 <path d="m750.07 158.48c3.3203-30.781-5.3945-61.527-0.023437-92.297 0.31641-1.8047-0.042969-3.7188 0.23438-5.5312 1.75-11.48 1.8477-26.926 15.984-27.621 13.547-0.66797 21.168 11.453 25.574 24.922 5.8398 17.844 0.55469 31.633-5.7227 49.023v-0.003906c-7.9297 24.629-13.441 49.969-16.453 75.664-2.4375 16.43-1.3828 33.512-5.4609 49.758-2.918 11.633 1.6992 15.188 12.098 15.848 41.273 2.6094 80.707 14.684 120.82 23.406 44.82 9.7461 51.984 40.141 48.453 74.082-1.2656 12.184-14.703 23.379-23.293 34.477-31.746 41.012-63.262 82.223-95.871 122.54-32.875 40.648-67.852 79.613-100.12 120.71-17.109 22.539-32.465 46.363-45.922 71.258-5.7227 10.125-12.188 19.812-19.348 28.977-12.844 18.254-19.574 40.105-19.227 62.418-1.6875 31.117-1.9922 62.332-2.0195 93.508 0.85547 50.273 4.707 100.45 11.535 150.26 0.87891 7.3945 2.2734 11.555 10.547 11.367 44.723-1.0039 80.012 21.512 113.92 46.727v0.003907c4.7812 4.8203 7.3711 11.395 7.1641 18.18-0.20312 6.7891-3.1914 13.191-8.2539 17.715-21.969 24.93-51.852 31.43-82.926 35.984-32.051 4.6992-64.512 0.53125-96.43 5.4336-18.898 3.2656-38.297 2.0508-56.645-3.5391-19.664-6.1484-38.887-13.629-57.539-22.391-17.129-8.5664-17.391-33.668-4.1875-52.391h0.003906c15.098-19.09 35.711-33.062 59.031-40.02 34.18-12.527 35.27-12.031 32.84-48.09-2.5898-38.414-10.305-76.738-9.8906-115.04 0.45312-41.77-12.082-81.113-17.152-121.69v-0.003906c-4.2305-25.184-17.062-48.117-36.312-64.895-22.621-22.742-42.648-47.922-59.715-75.078-25.758-36.918-53.344-72.574-78.742-109.73-19.816-28.984-37.34-59.527-56.176-89.191-16.207-25.531-33.445-50.41-47.156-77.469-3.0781-6.0742-13.668-10.312-8.7578-18 7.1172-11.141 8.8438-26.848 22.258-32.871 28.398-14.457 57.977-26.477 88.414-35.922 25.633-6.6484 51.469-11.613 77.461-15.703 51.973-8.1797 104.71-6.2852 157.04-10.336v-0.003906c44.012-1.4922 88.078 0.046875 131.88 4.6055 3.375 1.1445 7.0938 0.55859 9.957-1.5625 2.8633-2.1211 4.5078-5.5117 4.3984-9.0742 5.5-22.816 0.76562-45.785 3.7383-68.434zm-368.27 347.32h0.003907c0.96875 2.1875 2.0977 4.3008 3.375 6.3242 38.664 52.789 75.543 107.04 116.82 157.7 22.863 28.062 52.828 51.59 93.457 48.105 27.781-2.3828 52.941-7.5352 70.027-36.355l0.003907-0.003906c18.852-34.867 41.715-67.41 68.125-96.965 17.785-18.426 32.449-39.867 49.219-60.84-14.48-2.4531-29.27 2.0898-39.875 12.254-44.492 34.258-108.59 48.727-154.5-1.4102-6.582-7.3359-16.113-11.332-25.957-10.883-42.34-0.65625-84.809-1.207-126.91-5.1953-17.281-1.6367-37.73 1.7891-53.793-12.734zm-95.457-193.08c16.879 27.113 44.02 23.859 68.188 24.648 37.18 1.3398 74.262 4.5742 111.11 9.6875 71.809 8.7656 144.23 11.391 216.49 7.8516 8.8867-0.31641 22.355 2.9648 27.688-9.8984 10.91-24.039 20.094-48.828 27.48-74.176 1.2305-2.6172 0.91406-5.6992-0.82422-8.0117-1.7383-2.3086-4.6172-3.4648-7.4688-3-30.191-2.707-60.387-7.7812-90.566-7.6719-46.68 0.16797-93.465 2.4531-139.99 6.3906-73.121 6.1875-145.86 15.266-212.11 54.18zm263.63 420.33c3.4141 8.7422 6.3789 17.652 8.8867 26.699 14.629 68.977 15.773 139.64 26.031 209.18 3.0859 20.914-6.707 43.266 2.8477 62.465 7.8398 15.75 1.707 30.203 3.3125 45.09h0.003907c0.30859 2.1992-0.35938 4.4219-1.8281 6.0859-1.4727 1.6602-3.5938 2.6016-5.8125 2.5664-2.0391 0.76953-4.3125 0.59766-6.207-0.47656s-3.2109-2.9375-3.5938-5.082c-2.2305-9.4102-8.3555-9.7852-15.309-6.1719-14.75 7.6562-29.398 15.543-43.762 23.895-6.2461 3.6328-14.688 7.6211-13.426 16.066 1.3477 9.0195 12.129 6.6641 18.16 10.434 2.3281 0.82031 4.7891 1.2031 7.2578 1.125 40.48 6.9844 81.352 11.465 122.38 13.414 29.344 2.3281 58.832-2 86.273-12.656 9.9766-4.4141 23.398-8.2852 23.855-20.844 0.38281-10.465-13.223-11.316-20.719-15.516-21.105-13.926-44.559-23.914-69.227-29.484-5.1445-0.79297-15.898-3.6055-12.992 6.3633h0.003906c1.4844 3.0742 1.2344 6.707-0.65625 9.5469-1.8945 2.8438-5.1445 4.4766-8.5547 4.2891-7.2305 1.7891-8.3828-6.2266-10.141-10.934-6.0234-16.164-2.2578-33.324-4.1406-49.941-10.242-90.398-16.332-180.83-1.8281-271.37 1.6914-10.562-3.8242-11.051-11.562-10.762-21.875 0.82031-43.879 6.1094-69.258-3.9766zm139.01-357.9c-4.832-1.793-9.9922-2.5078-15.129-2.0938-25.074 1.0312-50.203 0.6875-75.305 1.2188v-0.003906c-55.527 0.17578-110.98-4.0352-165.85-12.598-45.234-6.2148-91.121-3.7383-136.28-10.871-10.957-1.7305-11.52 4.6602-7.7539 12.375h0.003906c5.5195 10.379 11.812 20.328 18.816 29.766 22.746 31.922 43.812 65.012 63.109 99.133 6.8594-20.465 24.219-26.363 42.262-30.262v-0.003907c43.246-10.668 87.613-16.125 132.16-16.25 13.656 1.1562 26.949-4.8125 35.16-15.789 17.074-20.664 36.52-42.035 66.727-35.398 20.246 4.4492 31.152-3.0234 42.078-19.223zm4.6016 134.5c6.707 0.039062 10.441 0.058593 14.172 0.085937 33.051 0.23047 33.043 0.23047 41.164-32.527v-0.003906c0.74219-1.6953 1.3398-3.4531 1.7891-5.25 0.91797-14.422 0.26172-30.125-11.738-38.758-18.555-12.602-41.023-18.109-63.301-15.52-9.3672 2.1367-19.176 1.1367-27.918-2.8516-17.449-9.4805-57.938 13.277-55.539 32.312 1.0312 3.9336 0.80078 8.0898-0.65234 11.887-1.457 3.7969-4.0625 7.043-7.457 9.2852-2.5898 3.0156-4.1758 6.7617-4.5391 10.719s0.51562 7.9297 2.5156 11.363c0.45703 7.043 6.0859 12.645 13.129 13.07 34.031-1.4414 67.324 8.3086 98.375 6.1875zm221.52-153.02c0.32813-6.4297-2.2148-8.6367-8.2656-6.4492-45.43 16.43-93.316 14.086-140.27 18.758-14.711 1.4648-29.582 1.332-44.285 2.8516-5.8789 0.71875-11.352 3.3828-15.543 7.5703-4.1953 4.1836-6.8711 9.6484-7.6055 15.527-1.5078 9.6562 11.195 5.6641 17.422 7.3359 27.449 7.3633 50.812 18.43 53.812 51.242 0.32812 3.5781-0.10547 8.0781 5.4961 7.6211 11.949-0.97266 17.07 7.7656 22.715 15.695 6.9727 9.793 12.09 12.477 21.289 0.47266 23.984-31.309 49.781-61.223 74.547-91.945 7.6992-9.5508 14.398-19.914 20.684-28.684zm-153.54-4.4258c30.582-8.207 66.922-4.8711 102.15-11.719v-0.003906c14.773-1.2383 28.895-6.6406 40.727-15.578 5.0664-4.5273 12.465-7.5391 12.008-14.98-0.48828-7.9609-8.9297-9.375-14.828-12.133-33.816-15.793-71.766-15.082-106.76-26.391-8.3359-2.0156-16.82-3.3594-25.371-4.0195-3.207-0.99219-6.6875-0.54297-9.543 1.2266-2.8555 1.7695-4.8047 4.6875-5.3477 8-5.3125 22.102-12.789 43.629-22.316 64.27-2.6641 4.8281-2.6875 12.656 3.3203 10.477 8.4297-3.0625 14.457 2.3672 25.961 0.84766zm-353.05 140.14c49.059 15.629 99.348 4.1953 148.29 11.52 5.9727 0.89453 8.4219-3.8672 7.4102-9.9766v0.003906c-1.3047-6.6211-2.1836-13.32-2.6328-20.055 0.34766-2.8203-0.75-5.625-2.918-7.457-2.1719-1.8359-5.1211-2.4492-7.8398-1.6328-30.121 2.1094-60.371 3.1211-90.324 6.668-18.656 2.207-33.605 15.758-51.984 20.93zm202.79 31.957c12.152 13.125 28.789 21.203 46.617 22.637 17.828 1.4336 35.543-3.8867 49.633-14.902-31.266-2.5117-61.977-4.9805-96.25-7.7344zm161.08-47.605c-4.8203 8.7109-10.09 17.242-3.7109 25.051v0.003906c5.2109 2.3125 11.332 0.61719 14.613-4.0469 5.582-10.562-5.6133-14.023-10.902-21.004z"/>
</svg>
