<?xml version="1.0" encoding="UTF-8"?>
<svg width="1200pt" height="1200pt" version="1.1" viewBox="0 0 1200 1200" xmlns="http://www.w3.org/2000/svg">
 <path d="m346.69 317.2c48.758-4.3945 97.848 3.457 142.8 22.844 42.352 17.965 65.094-4.9453 93.883-21.117 10.797-6.8711 21.145-14.418 30.984-22.602 44.184-32.891 95.34-52.613 143.6-77.918v0.003906c44.84-22.738 92.93-38.402 142.56-46.438 14.348-3.3633 29.02-5.1367 43.754-5.2891 8.3477 1.5 15.492 6.8594 19.27 14.449 10.945 28.855 17.812 59.324 29.629 87.762 21.324 51.32 45.703 101.36 67.754 152.39 26.027 60.234 50.762 121.02 76.535 181.37v0.003906c3.4414 8.3516 8.5078 15.938 14.902 22.32 29.012 27.621 11.285 64.18 18.855 95.855 0.84766 5.4766-1.2422 10.992-5.5039 14.535-4.2617 3.5391-10.07 4.582-15.297 2.7461-31.375-14.793-63.293-8.3828-94.809-2.9844-78.016 13.363-140.35 56.418-199.42 106.17-20.078 17.316-42.355 31.902-66.254 43.383-12.59 5.8242-30.289 0.39453-45.68 0.41016-24.953 0.023437-50.078-1.4531-74.828 0.89844v0.003907c-57.609 4.25-114.23 17.312-167.88 38.727-47.43 21.496-91 50.656-128.95 86.312-2.8398 2.5195-4.3242 6.5195-7.0391 9.2305-4.9062 4.8984-12.344 14.188-15.039 13.031-7.707-3.1094-13.922-9.0586-17.359-16.625-27.492-85.992-79.34-159.51-121.72-237.75-28.344-52.316-62.703-101.33-92.621-152.84-29.336-50.504-56.305-102.38-84.668-153.45-3.875-5.6367-5.875-12.352-5.707-19.188 0.16797-6.8398 2.4922-13.449 6.6445-18.887 2.3633-3.0117 3.8984-6.5938 4.4492-10.383 2.9219-38.797 32.82-54.414 62.496-62.961 76.406-22.004 152.93-45.957 244.66-44.016zm407.57 517.63c-21.91-44.344-40.277-83.77-60.578-122.17-54.277-102.66-109.5-204.82-164.06-307.33-10.477-19.684-21.418-37.695-44.645-45.164l-0.003906-0.003907c-50.77-18.133-104.8-25.348-158.54-21.168-46.02 3.7188-91.789 10.074-137.08 19.039-33.281 7.457-64.492 24.051-96.754 36.242-9.9844 3.7734-10.477 8.7969-5.3984 17.465 16.809 28.68 33.52 57.438 49.34 86.668 26.188 48.391 52.273 96.859 77.227 145.89 19.699 38.703 37.723 78.266 56.305 117.53 6.5273 13.793 12.375 27.91 18.742 41.781 22.301 48.574 44.688 97.105 68.461 148.73 8.1562-7.332 13.004-11.289 17.391-15.703 26.77-27.82 58.77-50.078 94.16-65.508 76.668-34.191 161.21-46.816 244.52-36.52 13.625 0.88672 27.289 0.96094 40.918 0.22266zm385.25-185.36c-11.98-23.883-23.719-44.43-32.867-66.07-26.176-61.906-50.98-124.39-76.934-186.39-25.793-61.621-52.805-122.74-78.188-184.53-6.0508-14.723-13.379-22.906-29.789-19.629-34.426 6.875-71.426 7.9766-102.75 21.867-71.367 31.648-144.29 61-208.68 106.93-34.418 24.551-37.398 30.27-17.832 68.84 24.551 48.395 49.758 96.453 74.711 144.64 11.668 22.535 23.531 44.969 35.078 67.566 19.23 37.645 38.617 75.215 57.23 113.16 7.1875 14.656 11.887 29.656 26.348 40.594 10.137 7.668 15.289 21.812 23.012 32.82 7.125 10.156 13.762 8.9766 23.828 1.5977 56.578-42.309 117.31-78.754 181.27-108.77 38.723-17.746 78.273-33.582 125.56-32.621zm-807.98 309.13 6.2578-2.582c-84.137-181.53-160.39-366.99-271.92-536.54-6.6914 14.129-10.207 29.551-10.293 45.184 3.0469 13.043 8.5938 25.371 16.34 36.301 17.871 32.68 35.859 65.309 54.57 97.512 18.699 32.184 38.328 63.828 57.551 95.707l6.2539-3.5547c-31.562-57.133-63.113-114.27-94.656-171.42-9.5273-17.309-19.469-34.477-27.418-52.504-0.22656-6.5117 1.1953-12.973 4.1328-18.789 5.293 3.2109 9.9531 7.3672 13.738 12.262 8.8945 18.152 15.59 37.395 24.609 55.48 26.387 52.906 54.57 104.94 79.984 158.3 20.848 43.773 37.551 89.52 58.332 133.33 14.531 30.641 33.02 59.391 49.418 89.164 11.32 20.555 22.086 41.418 33.098 62.145zm447.83-153.21c-7.3008-14.699-14.348-29.645-22.043-44.25-28.75-54.562-61.598-107.36-85.652-163.9h-0.003906c-32.672-77.375-70.016-152.7-111.82-225.54-2.8281-2.9609-6.2227-5.3203-9.9844-6.9336-2.7148 3.0508-4.7695 6.6328-6.0312 10.52-0.73438 6.1602 0.046875 12.41 2.2812 18.199 9.9648 21.543 20.555 42.816 31.527 63.875 31.973 61.375 64.133 122.65 96.477 183.84 22.18 41.77 45.309 83.039 67.559 124.77 8.332 15.629 15.379 31.938 23.074 48.07zm367.57-96.684c4.3438-30.566 1.3789-36.203-25.176-34.859v0.003906c-20.082 1.7734-39.867 6.0508-58.891 12.727-65.117 22.109-126.47 54.059-181.91 94.738-18.883 13.117-37.094 27.273-54.883 41.84-4.2031 4.9414-7.543 10.559-9.875 16.613l4.5625 5.1797c92.52-85.91 194.95-147.9 326.18-136.24zm-779.76 272.16 3.2266 2.7539c15.613-12.688 31.715-24.832 46.746-38.172 36.969-32.805 75.754-60.367 127.86-64.191 39.789-2.918 79.281-9.9102 118.91-15.074 19.91-2.5938 39.824-5.168 59.738-7.7266l-0.38672-5.1328c-18.73 0-37.461-0.074219-56.188 0.019531v0.003906c-19.719-1.2266-39.504-0.85937-59.16 1.1016-36.059 5.6953-71.707 13.73-106.72 24.051-51.328 16.59-96.465 48.27-129.51 90.902-2.0703 3.5742-3.5898 7.4375-4.5078 11.465z"/>
 <path d="m189.21 465.78c2.4336-6.5977 6.4258-12.504 11.645-17.215 46.656-19.215 92.715-41.48 141.23-54.035 32.605-8.4375 68.902-2.9297 103.54-2.6523 4.3047 2.6641 7.8242 6.4219 10.199 10.895-5.3086 5.2148-11.723 9.168-18.766 11.566-13.914 0.66016-27.965-3.0273-42.008-3.4883-58.305-1.9062-110.58 18.199-161.12 44.738-12.238 6.4258-25.395 11.109-38.129 16.594z"/>
 <path d="m618.49 689.3c-0.23047 20.145-8.2539 26.984-27.492 24.766-73.867-8.5234-135.7 21.656-195.38 59.492-9.4688 6.0039-19.676 10.836-29.539 16.211l-5.168-4.457 0.003907 0.003906c2.2578-6.1992 5.6875-11.902 10.102-16.805 58.535-41.613 122.26-69.812 195.17-73.824 17.348-0.95312 34.609-3.5195 52.305-5.3867z"/>
 <path d="m469.78 496.46c-18.254 0-31.496-1.0156-44.535 0.17578v0.003907c-52.926 5.2578-104.25 21.105-150.93 46.602-6.2734 4.3672-12.961 8.1055-19.965 11.16-5.6172 0.25391-11.223-0.66406-16.465-2.6953 1.2812-5.9805 4.0508-11.539 8.0547-16.164 22.48-12.324 45.766-23.129 69.691-32.344 44.723-17.738 92.125-27.789 140.2-29.723 6.3398-0.37891 12.559 1.8438 17.219 6.1602 0.27734 5.7891-0.84375 11.562-3.2734 16.824z"/>
 <path d="m517.83 602.92c-9.8594-0.46094-19.734-0.39844-29.586 0.19531-15.84 1.7109-31.52 4.8203-47.305 7.082-47.645 7.3086-92.66 26.574-130.84 55.992-6.793 3.2695-14.102 5.332-21.598 6.0977l-4.6055-7.2891c7.3906-9.3711 16.215-17.512 26.148-24.129 38.703-18.414 78.438-34.586 119-48.438 27.398-6.7148 55.391-10.707 83.574-11.918 5.457-0.17969 10.672 2.2344 14.059 6.5117-0.027344 7.5508-1.1641 15.055-3.3789 22.27z"/>
 <path d="m837.71 256.39 15.703 12.559c-4.4492 5.3281-9.6875 9.9453-15.531 13.691-36.816 16.051-75.398 28.648-110.62 47.559-27.297 14.652-50.211 37.324-75.887 55.266-6.8242 2.5195-14.105 3.5703-21.363 3.0742 1.2109-5.9844 3.6328-11.66 7.1211-16.676 52.477-48.457 114.36-85.605 181.8-109.13 2.9766-0.96484 5.7578-2.6406 8.7812-3.3203 2.5664-0.3125 5.1562-0.35156 7.7305-0.10938z"/>
 <path d="m1019.8 570.45c2.5352-0.52344 5.1562-0.46094 7.6602 0.1875 5.2812 3.2305 10.023 7.3398 14.977 11.102-3.2148 4.8594-7.6602 8.7812-12.887 11.363-58.406-2.5234-104.23 28.59-151.08 56.176-17.637 10.383-32.766 24.949-49.699 36.652h0.003907c-5.9531 2.8633-12.309 4.8008-18.848 5.7422 0.23828-7.125 2.1953-14.082 5.7031-20.289 42.031-37.027 90.562-65.941 143.14-85.277 19.699-7.1484 40.039-12.547 60.086-18.742z"/>
 <path d="m902.64 364.52c-3.75 3.1836-8.082 5.6094-12.754 7.1445-53.508 5.0625-98.926 30.395-143.02 57.98h-0.003907c-16.789 12.367-32.914 25.609-48.309 39.672-5.0195 2.7539-10.445 4.6914-16.07 5.7461-1.3789-5.4688-1.3906-11.195-0.039063-16.672 5.9258-9.1914 13.27-17.391 21.754-24.297 50.395-37.73 107.08-66.234 167.42-84.191 8.5977-2.8281 20.641 4.8047 31.09 7.5977z"/>
 <path d="m947.11 468.91c3.5195 3.3516 5.9961 7.6445 7.1289 12.371-2.5586 6.7773-7.9336 12.109-14.73 14.617-34.691 1.5469-68.562 11.039-99.008 27.738-27.16 16.73-52.516 36.375-79.043 54.172h-0.003907c-5.7656 2.9023-11.875 5.0586-18.184 6.4258 0.71484-7.0391-1.2461-16.953 2.6484-20.578 11.633-10.828 26.117-18.508 38.488-28.633 44.945-36.785 98.91-51.934 153.71-65.293 1.2422-0.30078 2.5703-0.25 8.9961-0.82031z"/>
</svg>
