<svg width="336" height="583" xmlns="http://www.w3.org/2000/svg" xmlns:xlink="http://www.w3.org/1999/xlink" xml:space="preserve" overflow="hidden"><g transform="translate(-646 -3420)"><path d="M683.37 3425.48C705.414 3423.02 757.145 3443.05 786.878 3438.15 816.612 3433.24 848.289 3447.31 884.528 3450.09 920.766 3452.88 937.252 3464.84 976.318 3461.33 974.326 3489.77 948.141 3517.41 933.503 3556.77 918.866 3596.13 900.155 3613 892.013 3649.26 883.87 3685.52 854.904 3723.47 843.901 3756.52 792.95 3755.03 782.567 3744.41 741.404 3743.97 726.054 3696.98 734.956 3657.45 722.059 3637.81 709.164 3618.17 712.378 3570.43 702.134 3528.46 691.89 3486.5 700.615 3450.06 683.37 3425.48Z" stroke="#000000" stroke-width="10.3125" stroke-miterlimit="8" fill="none" fill-rule="evenodd"/><path d="M654.328 3970.2C699.309 3963.37 737.052 3983.79 764.703 3983.71 792.354 3983.63 838.432 3998.58 870.749 3996.68 859.133 3960.96 868.09 3918.16 855.308 3887.35 842.525 3856.53 857.874 3824.25 839.866 3778.01 810.501 3777.29 778.646 3760.37 735.638 3765.25 723.978 3814.16 703.71 3837.97 695.796 3865.68 687.882 3893.39 664.541 3939.86 654.328 3970.2Z" stroke="#000000" stroke-width="10.3125" stroke-miterlimit="8" fill="none" fill-rule="evenodd"/><path d="M849.927 3777.64C823.408 3788.22 768.28 3762.69 728.905 3762.83 728.17 3757.32 732.18 3746.47 731.447 3742.05 776.127 3733.01 818.758 3759.27 852.296 3756.84 851.752 3764.84 849.576 3771.85 849.927 3777.64Z" fill-rule="evenodd"/><path d="M849.927 3777.64C799.773 3785.15 770.314 3762.6 728.905 3762.83 729.552 3755.47 732.492 3748.66 731.447 3742.05 763.012 3740.31 807.253 3759.97 852.296 3756.84 853.106 3763.73 852.096 3770.75 849.927 3777.64Z" stroke="#000000" stroke-width="4.58333" stroke-miterlimit="8" fill="none" fill-rule="evenodd"/></g></svg>