<svg width="311" height="561" xmlns="http://www.w3.org/2000/svg" xmlns:xlink="http://www.w3.org/1999/xlink" xml:space="preserve" overflow="hidden"><g transform="translate(-1495 -3039)"><path d="M1505 3048C1526.57 3042.88 1580.33 3056.48 1609.23 3048 1638.14 3039.52 1671.27 3049.63 1707.57 3048 1743.86 3046.37 1761.67 3056.23 1800 3048 1801.48 3076.47 1778.85 3107.07 1769.11 3147.91 1759.36 3188.74 1742.85 3207.76 1739.17 3244.73 1735.49 3281.7 1711.36 3322.87 1704.46 3357 1653.72 3361.71 1642.13 3352.43 1601.24 3357 1580.31 3312.23 1584.34 3271.92 1569.16 3254 1553.98 3236.08 1551.38 3188.31 1536.12 3147.91 1520.86 3107.51 1525.09 3070.29 1505 3048Z" stroke="#000000" stroke-width="10.3125" stroke-miterlimit="8" fill="none" fill-rule="evenodd"/><path d="M1542 3592C1585.81 3579.77 1625.75 3595.43 1653.18 3592 1680.61 3588.57 1728.16 3597.8 1760 3592 1744.13 3558 1747.83 3514.49 1731.4 3485.5 1714.97 3456.51 1726.28 3422.65 1702.8 3379 1673.57 3381.85 1639.9 3368.95 1597.81 3379 1592.17 3428.88 1574.95 3454.94 1570.46 3483.37 1565.97 3511.8 1548.45 3560.68 1542 3592Z" stroke="#000000" stroke-width="10.3125" stroke-miterlimit="8" fill="none" fill-rule="evenodd"/><path d="M1713.5 3377.5C1688.45 3390.61 1630.59 3372.8 1591.5 3377.5 1590.1 3372.36 1592.76 3361.61 1591.5 3357.5 1634.78 3343.74 1680.31 3363.7 1713.33 3357.5 1713.76 3365.15 1712.45 3372.06 1713.5 3377.5Z" fill-rule="evenodd"/><path d="M1713.5 3377.5C1664.6 3390.45 1632.6 3372.48 1591.5 3377.5 1591.25 3370.44 1593.34 3363.65 1591.5 3357.5 1622.64 3352.19 1668.97 3365.7 1713.33 3357.5 1714.97 3363.94 1714.82 3370.71 1713.5 3377.5Z" stroke="#000000" stroke-width="4.58333" stroke-miterlimit="8" fill="none" fill-rule="evenodd"/></g></svg>