<svg width="302" height="562" xmlns="http://www.w3.org/2000/svg" xmlns:xlink="http://www.w3.org/1999/xlink" xml:space="preserve" overflow="hidden"><g transform="translate(-1626 -3011)"><path d="M1629.5 3019.5C1659.87 3003.94 1742.34 3031.89 1771.1 3019.5 1799.86 3007.11 1883.99 3032.98 1924.5 3019.5 1922.22 3083.68 1884.45 3106.4 1878.64 3167.82 1872.83 3229.24 1831.14 3270.84 1828.96 3328.5 1777.68 3332.88 1770.11 3318.75 1725.74 3328.5 1696.07 3275.15 1704.51 3245.59 1680.51 3183.27 1656.51 3120.95 1661.33 3088.94 1629.5 3019.5Z" fill="#FFFFFF" fill-rule="evenodd"/><path d="M1629.5 3019.5C1700.7 3015.5 1722.44 3034.2 1779.95 3019.5 1837.46 3004.8 1860.69 3023.13 1924.5 3019.5 1917.59 3052.06 1874.29 3131.14 1878.64 3167.82 1882.99 3204.5 1837.32 3257.92 1828.96 3328.5 1796.4 3332.8 1767.28 3319.66 1725.74 3328.5 1697.71 3298.31 1702.55 3240.96 1676.66 3170.91 1650.77 3100.86 1655.77 3092.08 1629.5 3019.5Z" stroke="#000000" stroke-width="4.58333" stroke-miterlimit="8" fill="none" fill-rule="evenodd"/><path d="M1666.5 3564.5C1687.94 3559.92 1749.22 3566.26 1771.14 3564.5 1793.06 3562.74 1856.67 3568.13 1884.5 3564.5 1865.38 3522.06 1869.92 3485.1 1857.61 3463.92 1845.31 3442.74 1838.11 3373.24 1827.3 3350.5 1777.78 3356.55 1750.62 3346.79 1722.31 3350.5 1716.65 3391.31 1692.85 3426.51 1695.52 3453.22 1698.19 3479.93 1663.22 3533.94 1666.5 3564.5Z" fill="#FFFFFF" fill-rule="evenodd"/><path d="M1666.5 3564.5C1693.24 3562.13 1743.06 3577.66 1777.68 3564.5 1812.3 3551.34 1838.72 3568.91 1884.5 3564.5 1871.14 3542.16 1880.29 3506.07 1855.9 3457.5 1831.51 3408.93 1845.59 3371.12 1827.3 3350.5 1790.11 3357.32 1760.29 3341.14 1722.31 3350.5 1713.32 3388.03 1698.81 3430.43 1694.96 3455.36 1691.12 3480.29 1672.91 3522.68 1666.5 3564.5Z" stroke="#000000" stroke-width="4.58333" stroke-miterlimit="8" fill="none" fill-rule="evenodd"/><path d="M1837.5 3349.5C1793.7 3358.78 1755.5 3345.2 1715.5 3349.5 1713.2 3343.31 1715.57 3335.18 1715.5 3328.5 1749.3 3324.06 1792.12 3338.88 1837.33 3328.5 1837.47 3335.74 1837.2 3342.81 1837.5 3349.5Z" fill-rule="evenodd"/><path d="M1837.5 3349.5C1789.53 3363.31 1771.82 3346.97 1715.5 3349.5 1714.35 3340.25 1717.83 3334.1 1715.5 3328.5 1742.26 3328.33 1811.01 3334.88 1837.33 3328.5 1838.58 3335.32 1837.79 3342.47 1837.5 3349.5Z" stroke="#000000" stroke-width="4.58333" stroke-miterlimit="8" fill="none" fill-rule="evenodd"/></g></svg>