<svg width="311" height="561" xmlns="http://www.w3.org/2000/svg" xmlns:xlink="http://www.w3.org/1999/xlink" xml:space="preserve" overflow="hidden"><g transform="translate(-1495 -3039)"><path d="M1505 3048C1549.13 3047.19 1556.3 3055.9 1597.43 3048 1638.56 3040.1 1659.53 3049.04 1692.82 3048 1726.1 3046.96 1758.33 3052.2 1800 3048 1789.28 3087.98 1772.37 3108.53 1766.24 3157.18 1760.11 3205.83 1744.11 3216.7 1734.39 3260.18 1724.68 3303.66 1708.8 3323.84 1704.46 3357 1657.31 3362.25 1622.57 3345.39 1601.24 3357 1585.04 3335.21 1585.43 3305.61 1572.05 3263.27 1558.67 3220.93 1550.17 3189.11 1538.04 3154.09 1525.91 3119.07 1522.25 3088.18 1505 3048Z" fill="#FFFFFF" fill-rule="evenodd"/><path d="M1505 3048C1526.57 3042.88 1580.33 3056.48 1609.23 3048 1638.14 3039.52 1671.27 3049.63 1707.57 3048 1743.86 3046.37 1761.67 3056.23 1800 3048 1801.48 3076.47 1778.85 3107.07 1769.11 3147.91 1759.36 3188.74 1742.85 3207.76 1739.17 3244.73 1735.49 3281.7 1711.36 3322.87 1704.46 3357 1653.72 3361.71 1642.13 3352.43 1601.24 3357 1580.31 3312.23 1584.34 3271.92 1569.16 3254 1553.98 3236.08 1551.38 3188.31 1536.12 3147.91 1520.86 3107.51 1525.09 3070.29 1505 3048Z" stroke="#000000" stroke-width="10.3125" stroke-miterlimit="8" fill="none" fill-rule="evenodd"/><path d="M1542 3592C1566.97 3588.03 1601 3594.36 1646.64 3592 1692.28 3589.64 1713.97 3605.17 1760 3592 1746.36 3550.02 1754.15 3535.54 1733.11 3491.89 1712.08 3448.24 1713.09 3405.91 1702.8 3379 1681.76 3381.93 1621.42 3377.2 1597.81 3379 1597.55 3404.84 1580.61 3443.06 1571.02 3481.24 1561.43 3519.42 1548.11 3564.13 1542 3592Z" fill="#FFFFFF" fill-rule="evenodd"/><path d="M1542 3592C1585.81 3579.77 1625.75 3595.43 1653.18 3592 1680.61 3588.57 1728.16 3597.8 1760 3592 1744.13 3558 1747.83 3514.49 1731.4 3485.5 1714.97 3456.51 1726.28 3422.65 1702.8 3379 1673.57 3381.85 1639.9 3368.95 1597.81 3379 1592.17 3428.88 1574.95 3454.94 1570.46 3483.37 1565.97 3511.8 1548.45 3560.68 1542 3592Z" stroke="#000000" stroke-width="10.3125" stroke-miterlimit="8" fill="none" fill-rule="evenodd"/><path d="M1713.5 3377.5C1688.45 3390.61 1630.59 3372.8 1591.5 3377.5 1590.1 3372.36 1592.76 3361.61 1591.5 3357.5 1634.78 3343.74 1680.31 3363.7 1713.33 3357.5 1713.76 3365.15 1712.45 3372.06 1713.5 3377.5Z" fill-rule="evenodd"/><path d="M1713.5 3377.5C1664.6 3390.45 1632.6 3372.48 1591.5 3377.5 1591.25 3370.44 1593.34 3363.65 1591.5 3357.5 1622.64 3352.19 1668.97 3365.7 1713.33 3357.5 1714.97 3363.94 1714.82 3370.71 1713.5 3377.5Z" stroke="#000000" stroke-width="4.58333" stroke-miterlimit="8" fill="none" fill-rule="evenodd"/></g></svg>